<svg xmlns="http://www.w3.org/2000/svg" x="0px" y="0px" viewBox="11.73744010925293 6.4090800285339355 24.525121688842773 35.18183135986328" enable-background="new 0 0 48 48">
<g>
	
		<path fill="#FFFFFF" stroke="#536DFE" stroke-width="1" stroke-linecap="round" stroke-linejoin="round" stroke-miterlimit="10" d="   M24,18.30303h-6.22707c-3.05717,0-5.53549-2.47833-5.53549-5.5355v-0.32295c0-3.05717,2.47833-5.5355,5.53549-5.5355H24V18.30303z"/>
	
		<path fill="#FFFFFF" stroke="#536DFE" stroke-width="1" stroke-linecap="round" stroke-linejoin="round" stroke-miterlimit="10" d="   M24,29.69697h-6.22707c-3.05717,0-5.53549-2.47833-5.53549-5.5355v-0.32295c0-3.05717,2.47833-5.5355,5.53549-5.5355H24V29.69697z"/>
</g>
<g>
	
		<path fill="#FFFFFF" stroke="#536DFE" stroke-width="1" stroke-linecap="round" stroke-linejoin="round" stroke-miterlimit="10" d="   M24,18.30303h6.22707c3.05717,0,5.53549-2.47833,5.53549-5.5355v-0.32295c0-3.05717-2.47832-5.5355-5.53549-5.5355H24V18.30303z"/>
	
		<path fill="#FFFFFF" stroke="#536DFE" stroke-width="1" stroke-linecap="round" stroke-linejoin="round" stroke-miterlimit="10" d="   M17.77294,41.09091h-0.00001c-3.05717,0-5.53549-2.47832-5.53549-5.5355v-0.32295c0-3.05717,2.47833-5.53549,5.53549-5.53549H24   v5.16688C24,38.30296,21.21205,41.09091,17.77294,41.09091z"/>
	
		<path fill="#FFFFFF" stroke="#536DFE" stroke-width="1" stroke-linecap="round" stroke-linejoin="round" stroke-miterlimit="10" d="   M29.69696,29.69697h0.36864c3.14635,0,5.69696-2.55062,5.69696-5.69696v-0.00001c0-3.14635-2.55062-5.69696-5.69696-5.69696   h-0.36864C26.55062,18.30303,24,20.85365,24,23.99999v0.00001C24,27.14635,26.55062,29.69697,29.69696,29.69697z"/>
</g>
</svg>